<mxfile host="app.diagrams.net" modified="2023-05-21T23:55:06.085Z" agent="Mozilla/5.0 (Windows NT 10.0; Win64; x64) AppleWebKit/537.36 (KHTML, like Gecko) Chrome/113.0.0.0 Safari/537.36" etag="DAulxWhuyNy9IyAiDP_D" version="21.3.2" type="github">
  <diagram name="Page-1" id="_RfR6MrPQ8nE_SRXUij-">
    <mxGraphModel dx="1647" dy="859" grid="1" gridSize="10" guides="1" tooltips="1" connect="1" arrows="1" fold="1" page="1" pageScale="1" pageWidth="1169" pageHeight="827" math="0" shadow="0">
      <root>
        <mxCell id="0" />
        <mxCell id="1" parent="0" />
        <mxCell id="Y9TbaiRM3-fPMO-7ui7F-1" value="&lt;sup&gt;FuncionÃ¡rio (Administrador)&lt;/sup&gt;" style="shape=umlActor;verticalLabelPosition=bottom;verticalAlign=top;html=1;" parent="1" vertex="1">
          <mxGeometry x="140" y="30" width="30" height="60" as="geometry" />
        </mxCell>
        <mxCell id="Y9TbaiRM3-fPMO-7ui7F-2" value="" style="endArrow=none;html=1;rounded=0;" parent="1" edge="1">
          <mxGeometry width="50" height="50" relative="1" as="geometry">
            <mxPoint x="160" y="723" as="sourcePoint" />
            <mxPoint x="160" y="123" as="targetPoint" />
          </mxGeometry>
        </mxCell>
        <mxCell id="Y9TbaiRM3-fPMO-7ui7F-3" value="" style="endArrow=classic;html=1;rounded=0;" parent="1" edge="1">
          <mxGeometry width="50" height="50" relative="1" as="geometry">
            <mxPoint x="160" y="160" as="sourcePoint" />
            <mxPoint x="580" y="160" as="targetPoint" />
          </mxGeometry>
        </mxCell>
        <mxCell id="Y9TbaiRM3-fPMO-7ui7F-4" value="definirPrecoServicos(servico, preco)" style="text;html=1;align=center;verticalAlign=middle;resizable=0;points=[];autosize=1;strokeColor=none;fillColor=none;" parent="1" vertex="1">
          <mxGeometry x="254" y="171" width="220" height="30" as="geometry" />
        </mxCell>
        <mxCell id="Y9TbaiRM3-fPMO-7ui7F-5" value="" style="endArrow=none;html=1;rounded=0;" parent="1" edge="1">
          <mxGeometry width="50" height="50" relative="1" as="geometry">
            <mxPoint x="580" y="723" as="sourcePoint" />
            <mxPoint x="580" y="123" as="targetPoint" />
          </mxGeometry>
        </mxCell>
        <mxCell id="Y9TbaiRM3-fPMO-7ui7F-6" value="" style="endArrow=none;dashed=1;html=1;dashPattern=1 3;strokeWidth=2;rounded=0;startArrow=classic;startFill=1;" parent="1" edge="1">
          <mxGeometry width="50" height="50" relative="1" as="geometry">
            <mxPoint x="160" y="220" as="sourcePoint" />
            <mxPoint x="580" y="220" as="targetPoint" />
          </mxGeometry>
        </mxCell>
        <mxCell id="Y9TbaiRM3-fPMO-7ui7F-7" value="registar(servico, preco)" style="text;html=1;align=center;verticalAlign=middle;resizable=0;points=[];autosize=1;strokeColor=none;fillColor=none;" parent="1" vertex="1">
          <mxGeometry x="289" y="238" width="150" height="30" as="geometry" />
        </mxCell>
        <mxCell id="Y9TbaiRM3-fPMO-7ui7F-12" value="Sistema" style="rounded=0;whiteSpace=wrap;html=1;" parent="1" vertex="1">
          <mxGeometry x="540" y="60" width="80" height="40" as="geometry" />
        </mxCell>
      </root>
    </mxGraphModel>
  </diagram>
</mxfile>
